# xmcd
#
# Track frame offsets:
#	150
#	13372
#	26967
#	41452
#	55680
#	78812
#	97570
#	108287
#	125142
#
# Disc length: 1844 seconds
#
# Revision: 1
# Processed by: cddbd v1.4PL0 Copyright (c) Steve Scherf et al.
# Submitted via: EasyCDDAExtractor 5.0.7
#
DISCID=67073209
DTITLE=슬기둥 - 슬기둥 [김영동]
DYEAR=2001
DGENRE=국악
TTITLE0=누나의 얼굴
TTITLE1=개구리 소리
TTITLE2=애사당
TTITLE3=우리 함께 친구되어
TTITLE4=꽃분네야
TTITLE5=상주 모심기 노래
TTITLE6=어화둥둥 우리사랑
TTITLE7=쑥대머리
TTITLE8=누나의 얼굴 (연주음악)
EXTD=
EXTT0=
EXTT1=
EXTT2=
EXTT3=
EXTT4=
EXTT5=
EXTT6=
EXTT7=
EXTT8=
PLAYORDER=
